<svg xmlns="http://www.w3.org/2000/svg" width="1024" height="1024" viewBox="0 0 1024 1024">
  <defs>
    <linearGradient id="gobTile" x1="0" y1="0" x2="0" y2="1">
      <stop offset="0" stop-color="#2c2c30"/>
      <stop offset="1" stop-color="#141417"/>
    </linearGradient>
  </defs>
  <rect x="96" y="96" width="832" height="832" rx="208" fill="url(#gobTile)"/>
  <rect x="97" y="97" width="830" height="830" rx="207" fill="none" stroke="#ffffff" stroke-opacity="0.10" stroke-width="2"/>
  <rect x="120" y="120" width="784" height="392" rx="184" fill="#ffffff" fill-opacity="0.04"/>
  <!-- Goblins OS mark: a minimal goblin/familiar sigil (pointed ears + almond eyes). -->
  <g transform="translate(512 548) scale(3.0)" fill="#f5f5f4" fill-rule="evenodd">
    <path d="M0,104 C 49,104 86,58 92,3 C 127,-26 132,-95 124,-104 C 116,-112 63,-75 58,-63 C 40,-75 20,-81 0,-81 C -20,-81 -40,-75 -58,-63 C -63,-75 -116,-112 -124,-104 C -132,-95 -127,-26 -92,3 C -86,58 -49,104 0,104 Z M-29,-12 C -43,-12 -52,0 -49,14 C -47,23 -31,23 -23,11 C -17,3 -17,-12 -29,-12 Z M29,-12 C 43,-12 52,0 49,14 C 47,23 31,23 23,11 C 17,3 17,-12 29,-12 Z"/>
  </g>
</svg>
