<svg xmlns="http://www.w3.org/2000/svg" width="1024" height="1024" viewBox="0 0 1024 1024">
  <defs>
    <linearGradient id="tile" x1="0" y1="0" x2="0" y2="1">
      <stop offset="0" stop-color="#303036"/>
      <stop offset="1" stop-color="#151518"/>
    </linearGradient>
    <linearGradient id="disk" x1="0" y1="0" x2="0" y2="1">
      <stop offset="0" stop-color="#f5f5f4" stop-opacity="0.96"/>
      <stop offset="1" stop-color="#d6d3d1" stop-opacity="0.88"/>
    </linearGradient>
  </defs>
  <rect x="96" y="96" width="832" height="832" rx="208" fill="url(#tile)"/>
  <rect x="97" y="97" width="830" height="830" rx="207" fill="none" stroke="#ffffff" stroke-opacity="0.10" stroke-width="2"/>
  <rect x="124" y="124" width="776" height="388" rx="184" fill="#ffffff" fill-opacity="0.04"/>
  <rect x="276" y="268" width="472" height="488" rx="96" fill="url(#disk)"/>
  <rect x="316" y="320" width="392" height="216" rx="44" fill="#19191d" fill-opacity="0.86"/>
  <rect x="348" y="352" width="328" height="152" rx="30" fill="#2f3034"/>
  <circle cx="512" cy="632" r="64" fill="#19191d" fill-opacity="0.84"/>
  <circle cx="512" cy="632" r="24" fill="#f5f5f4" fill-opacity="0.92"/>
  <path d="M430 726h164" stroke="#19191d" stroke-width="28" stroke-linecap="round" stroke-opacity="0.78"/>
  <path d="M374 426h276" stroke="#f5f5f4" stroke-width="30" stroke-linecap="round" stroke-opacity="0.86"/>
  <path d="M512 364v124" stroke="#f5f5f4" stroke-width="30" stroke-linecap="round" stroke-opacity="0.86"/>
  <path d="M462 442l50 50 50-50" fill="none" stroke="#f5f5f4" stroke-width="30" stroke-linecap="round" stroke-linejoin="round" stroke-opacity="0.86"/>
</svg>
